<?xml version="1.0" encoding="UTF-8" standalone="no"?>
<!DOCTYPE svg PUBLIC "-//W3C//DTD SVG 1.1//EN"
 "http://www.w3.org/Graphics/SVG/1.1/DTD/svg11.dtd">
<!-- Generated by graphviz version 2.38.0 (20140413.2041)
 -->
<!-- Title: Ogre::GpuProgram Pages: 1 -->
<svg width="750pt" height="382pt"
 viewBox="0.00 0.00 750.00 381.50" xmlns="http://www.w3.org/2000/svg" xmlns:xlink="http://www.w3.org/1999/xlink">
<g id="graph0" class="graph" transform="scale(1 1) rotate(0) translate(4 377.5)">
<title>Ogre::GpuProgram</title>
<!-- Node1 -->
<g id="node1" class="node"><title>Node1</title>
<polygon fill="#bfbfbf" stroke="black" points="265,-249 265,-268 363,-268 363,-249 265,-249"/>
<text text-anchor="middle" x="314" y="-256" font-family="Helvetica,sans-Serif" font-size="10.00">Ogre::GpuProgram</text>
</g>
<!-- Node5 -->
<g id="node5" class="node"><title>Node5</title>
<g id="a_node5"><a xlink:href="class_ogre_1_1_d3_d9_gpu_program.html" target="_top" xlink:title="Direct3D implementation of a few things common to low&#45;level vertex &amp; fragment programs. ">
<polygon fill="none" stroke="black" points="408,-316 408,-335 532,-335 532,-316 408,-316"/>
<text text-anchor="middle" x="470" y="-323" font-family="Helvetica,sans-Serif" font-size="10.00">Ogre::D3D9GpuProgram</text>
</a>
</g>
</g>
<!-- Node1&#45;&gt;Node5 -->
<g id="edge4" class="edge"><title>Node1&#45;&gt;Node5</title>
<path fill="none" stroke="midnightblue" d="M346.622,-272.258C376.549,-285.278 420.693,-304.483 446.976,-315.918"/>
<polygon fill="midnightblue" stroke="midnightblue" points="347.631,-268.88 337.064,-268.099 344.838,-275.298 347.631,-268.88"/>
</g>
<!-- Node8 -->
<g id="node8" class="node"><title>Node8</title>
<g id="a_node8"><a xlink:href="class_ogre_1_1_g_l_e_s2_gpu_program.html" target="_top" xlink:title="Generalised low&#45;level GL program, can be applied to multiple types (eg ARB and NV) ...">
<polygon fill="none" stroke="black" points="405,-259 405,-278 535,-278 535,-259 405,-259"/>
<text text-anchor="middle" x="470" y="-266" font-family="Helvetica,sans-Serif" font-size="10.00">Ogre::GLES2GpuProgram</text>
</a>
</g>
</g>
<!-- Node1&#45;&gt;Node8 -->
<g id="edge7" class="edge"><title>Node1&#45;&gt;Node8</title>
<path fill="none" stroke="midnightblue" d="M373.376,-262.291C383.634,-262.957 394.361,-263.653 404.768,-264.329"/>
<polygon fill="midnightblue" stroke="midnightblue" points="373.51,-258.792 363.304,-261.637 373.056,-265.777 373.51,-258.792"/>
</g>
<!-- Node10 -->
<g id="node10" class="node"><title>Node10</title>
<g id="a_node10"><a xlink:href="class_ogre_1_1_g_l_gpu_program.html" target="_top" xlink:title="Generalised low&#45;level GL program, can be applied to multiple types (eg ARB and NV) ...">
<polygon fill="none" stroke="black" points="414.5,-211 414.5,-230 525.5,-230 525.5,-211 414.5,-211"/>
<text text-anchor="middle" x="470" y="-218" font-family="Helvetica,sans-Serif" font-size="10.00">Ogre::GLGpuProgram</text>
</a>
</g>
</g>
<!-- Node1&#45;&gt;Node10 -->
<g id="edge9" class="edge"><title>Node1&#45;&gt;Node10</title>
<path fill="none" stroke="midnightblue" d="M363.794,-246.46C385.308,-241.151 410.232,-235.001 430.419,-230.02"/>
<polygon fill="midnightblue" stroke="midnightblue" points="362.731,-243.117 353.861,-248.911 364.408,-249.913 362.731,-243.117"/>
</g>
<!-- Node14 -->
<g id="node14" class="node"><title>Node14</title>
<g id="a_node14"><a xlink:href="class_ogre_1_1_high_level_gpu_program.html" target="_top" xlink:title="Abstract base class representing a high&#45;level program (a vertex or fragment program). ">
<polygon fill="none" stroke="black" points="399,-88 399,-107 541,-107 541,-88 399,-88"/>
<text text-anchor="middle" x="470" y="-95" font-family="Helvetica,sans-Serif" font-size="10.00">Ogre::HighLevelGpuProgram</text>
</a>
</g>
</g>
<!-- Node1&#45;&gt;Node14 -->
<g id="edge13" class="edge"><title>Node1&#45;&gt;Node14</title>
<path fill="none" stroke="midnightblue" d="M331.094,-241.674C363.179,-208.131 434.208,-133.874 459.681,-107.242"/>
<polygon fill="midnightblue" stroke="midnightblue" points="328.555,-239.265 324.172,-248.911 333.614,-244.104 328.555,-239.265"/>
</g>
<!-- Node2 -->
<g id="node2" class="node"><title>Node2</title>
<g id="a_node2"><a xlink:href="class_ogre_1_1_resource.html" target="_top" xlink:title="Abstract class representing a loadable resource (e.g. ">
<polygon fill="none" stroke="black" points="143,-249 143,-268 229,-268 229,-249 143,-249"/>
<text text-anchor="middle" x="186" y="-256" font-family="Helvetica,sans-Serif" font-size="10.00">Ogre::Resource</text>
</a>
</g>
</g>
<!-- Node2&#45;&gt;Node1 -->
<g id="edge1" class="edge"><title>Node2&#45;&gt;Node1</title>
<path fill="none" stroke="midnightblue" d="M239.441,-258.5C247.889,-258.5 256.599,-258.5 264.938,-258.5"/>
<polygon fill="midnightblue" stroke="midnightblue" points="239.307,-255 229.307,-258.5 239.307,-262 239.307,-255"/>
</g>
<!-- Node3 -->
<g id="node3" class="node"><title>Node3</title>
<g id="a_node3"><a xlink:href="class_ogre_1_1_string_interface.html" target="_top" xlink:title="Class defining the common interface which classes can use to present a reflection&#45;style, self&#45;defining parameter set to callers. ">
<polygon fill="none" stroke="black" points="0,-268 0,-287 107,-287 107,-268 0,-268"/>
<text text-anchor="middle" x="53.5" y="-275" font-family="Helvetica,sans-Serif" font-size="10.00">Ogre::StringInterface</text>
</a>
</g>
</g>
<!-- Node3&#45;&gt;Node2 -->
<g id="edge2" class="edge"><title>Node3&#45;&gt;Node2</title>
<path fill="none" stroke="midnightblue" d="M117.331,-268.352C126.011,-267.088 134.749,-265.816 142.929,-264.625"/>
<polygon fill="midnightblue" stroke="midnightblue" points="116.595,-264.922 107.203,-269.827 117.603,-271.849 116.595,-264.922"/>
</g>
<!-- Node4 -->
<g id="node4" class="node"><title>Node4</title>
<g id="a_node4"><a xlink:href="class_ogre_1_1_allocated_object.html" target="_top" xlink:title="Superclass for all objects that wish to use custom memory allocators when their new / delete operator...">
<polygon fill="none" stroke="black" points="13.5,-230 13.5,-249 93.5,-249 93.5,-230 13.5,-230"/>
<text text-anchor="middle" x="53.5" y="-237" font-family="Helvetica,sans-Serif" font-size="10.00">ResourceAlloc</text>
</a>
</g>
</g>
<!-- Node4&#45;&gt;Node2 -->
<g id="edge3" class="edge"><title>Node4&#45;&gt;Node2</title>
<path fill="none" stroke="midnightblue" d="M103.713,-246.665C116.542,-248.533 130.253,-250.529 142.69,-252.34"/>
<polygon fill="midnightblue" stroke="midnightblue" points="104.054,-243.178 93.6543,-245.201 103.046,-250.105 104.054,-243.178"/>
</g>
<!-- Node6 -->
<g id="node6" class="node"><title>Node6</title>
<g id="a_node6"><a xlink:href="class_ogre_1_1_d3_d9_gpu_fragment_program.html" target="_top" xlink:title="Direct3D implementation of low&#45;level fragment programs. ">
<polygon fill="none" stroke="black" points="577,-354 577,-373 742,-373 742,-354 577,-354"/>
<text text-anchor="middle" x="659.5" y="-361" font-family="Helvetica,sans-Serif" font-size="10.00">Ogre::D3D9GpuFragmentProgram</text>
</a>
</g>
</g>
<!-- Node5&#45;&gt;Node6 -->
<g id="edge5" class="edge"><title>Node5&#45;&gt;Node6</title>
<path fill="none" stroke="midnightblue" d="M528.284,-337.11C554.951,-342.514 586.281,-348.864 611.526,-353.98"/>
<polygon fill="midnightblue" stroke="midnightblue" points="528.81,-333.645 518.314,-335.089 527.42,-340.506 528.81,-333.645"/>
</g>
<!-- Node7 -->
<g id="node7" class="node"><title>Node7</title>
<g id="a_node7"><a xlink:href="class_ogre_1_1_d3_d9_gpu_vertex_program.html" target="_top" xlink:title="Direct3D implementation of low&#45;level vertex programs. ">
<polygon fill="none" stroke="black" points="583.5,-316 583.5,-335 735.5,-335 735.5,-316 583.5,-316"/>
<text text-anchor="middle" x="659.5" y="-323" font-family="Helvetica,sans-Serif" font-size="10.00">Ogre::D3D9GpuVertexProgram</text>
</a>
</g>
</g>
<!-- Node5&#45;&gt;Node7 -->
<g id="edge6" class="edge"><title>Node5&#45;&gt;Node7</title>
<path fill="none" stroke="midnightblue" d="M542.266,-325.5C555.707,-325.5 569.804,-325.5 583.36,-325.5"/>
<polygon fill="midnightblue" stroke="midnightblue" points="542.135,-322 532.135,-325.5 542.135,-329 542.135,-322"/>
</g>
<!-- Node9 -->
<g id="node9" class="node"><title>Node9</title>
<g id="a_node9"><a xlink:href="class_ogre_1_1_g_l_s_l_e_s_gpu_program.html" target="_top" xlink:title="GLSL ES low level compiled shader object &#45; this class is used to get at the linked program object and...">
<polygon fill="none" stroke="black" points="591,-278 591,-297 728,-297 728,-278 591,-278"/>
<text text-anchor="middle" x="659.5" y="-285" font-family="Helvetica,sans-Serif" font-size="10.00">Ogre::GLSLESGpuProgram</text>
</a>
</g>
</g>
<!-- Node8&#45;&gt;Node9 -->
<g id="edge8" class="edge"><title>Node8&#45;&gt;Node9</title>
<path fill="none" stroke="midnightblue" d="M545.3,-276.029C560.365,-277.556 576.13,-279.153 590.947,-280.655"/>
<polygon fill="midnightblue" stroke="midnightblue" points="545.304,-272.512 535.002,-274.986 544.599,-279.476 545.304,-272.512"/>
</g>
<!-- Node11 -->
<g id="node11" class="node"><title>Node11</title>
<g id="a_node11"><a xlink:href="class_ogre_1_1_g_l_arb_gpu_program.html" target="_top" xlink:title="Specialisation of the GL low&#45;level program for ARB programs. ">
<polygon fill="none" stroke="black" points="596.5,-240 596.5,-259 722.5,-259 722.5,-240 596.5,-240"/>
<text text-anchor="middle" x="659.5" y="-247" font-family="Helvetica,sans-Serif" font-size="10.00">Ogre::GLArbGpuProgram</text>
</a>
</g>
</g>
<!-- Node10&#45;&gt;Node11 -->
<g id="edge10" class="edge"><title>Node10&#45;&gt;Node11</title>
<path fill="none" stroke="midnightblue" d="M535.868,-230.533C555.611,-233.587 577.249,-236.933 596.779,-239.954"/>
<polygon fill="midnightblue" stroke="midnightblue" points="536.154,-227.036 525.737,-228.966 535.084,-233.953 536.154,-227.036"/>
</g>
<!-- Node12 -->
<g id="node12" class="node"><title>Node12</title>
<g id="a_node12"><a xlink:href="class_ogre_1_1_g_l_gpu_nvparse_program.html" target="_top" xlink:title="Ogre::GLGpuNvparseProgram">
<polygon fill="none" stroke="black" points="585.5,-202 585.5,-221 733.5,-221 733.5,-202 585.5,-202"/>
<text text-anchor="middle" x="659.5" y="-209" font-family="Helvetica,sans-Serif" font-size="10.00">Ogre::GLGpuNvparseProgram</text>
</a>
</g>
</g>
<!-- Node10&#45;&gt;Node12 -->
<g id="edge11" class="edge"><title>Node10&#45;&gt;Node12</title>
<path fill="none" stroke="midnightblue" d="M535.978,-217.381C551.864,-216.619 568.97,-215.797 585.215,-215.018"/>
<polygon fill="midnightblue" stroke="midnightblue" points="535.557,-213.897 525.737,-217.873 535.893,-220.889 535.557,-213.897"/>
</g>
<!-- Node13 -->
<g id="node13" class="node"><title>Node13</title>
<g id="a_node13"><a xlink:href="class_ogre_1_1_g_l_s_l_1_1_g_l_s_l_gpu_program.html" target="_top" xlink:title="GLSL low level compiled shader object &#45; this class is used to get at the linked program object and pr...">
<polygon fill="none" stroke="black" points="582.5,-164 582.5,-183 736.5,-183 736.5,-164 582.5,-164"/>
<text text-anchor="middle" x="659.5" y="-171" font-family="Helvetica,sans-Serif" font-size="10.00">Ogre::GLSL::GLSLGpuProgram</text>
</a>
</g>
</g>
<!-- Node10&#45;&gt;Node13 -->
<g id="edge12" class="edge"><title>Node10&#45;&gt;Node13</title>
<path fill="none" stroke="midnightblue" d="M516.057,-208.287C534.864,-203.271 556.958,-197.482 577,-192.5 589.831,-189.311 603.838,-185.988 616.564,-183.029"/>
<polygon fill="midnightblue" stroke="midnightblue" points="515.022,-204.941 506.267,-210.908 516.832,-211.703 515.022,-204.941"/>
</g>
<!-- Node15 -->
<g id="node15" class="node"><title>Node15</title>
<g id="a_node15"><a xlink:href="class_ogre_1_1_cg_program.html" target="_top" xlink:title="Specialisation of HighLevelGpuProgram to provide support for nVidia&#39;s CG language. ">
<polygon fill="none" stroke="black" points="613,-126 613,-145 706,-145 706,-126 613,-126"/>
<text text-anchor="middle" x="659.5" y="-133" font-family="Helvetica,sans-Serif" font-size="10.00">Ogre::CgProgram</text>
</a>
</g>
</g>
<!-- Node14&#45;&gt;Node15 -->
<g id="edge14" class="edge"><title>Node14&#45;&gt;Node15</title>
<path fill="none" stroke="midnightblue" d="M528.439,-109.141C555.53,-114.631 587.405,-121.091 612.82,-126.242"/>
<polygon fill="midnightblue" stroke="midnightblue" points="528.81,-105.645 518.314,-107.089 527.42,-112.506 528.81,-105.645"/>
</g>
<!-- Node16 -->
<g id="node16" class="node"><title>Node16</title>
<g id="a_node16"><a xlink:href="class_ogre_1_1_d3_d11_h_l_s_l_program.html" target="_top" xlink:title="Specialization of HighLevelGpuProgram to provide support for D3D11 High&#45;Level Shader Language (HLSL)...">
<polygon fill="none" stroke="black" points="591.5,-88 591.5,-107 727.5,-107 727.5,-88 591.5,-88"/>
<text text-anchor="middle" x="659.5" y="-95" font-family="Helvetica,sans-Serif" font-size="10.00">Ogre::D3D11HLSLProgram</text>
</a>
</g>
</g>
<!-- Node14&#45;&gt;Node16 -->
<g id="edge15" class="edge"><title>Node14&#45;&gt;Node16</title>
<path fill="none" stroke="midnightblue" d="M551.21,-97.5C564.57,-97.5 578.304,-97.5 591.297,-97.5"/>
<polygon fill="midnightblue" stroke="midnightblue" points="551.085,-94.0001 541.085,-97.5 551.085,-101 551.085,-94.0001"/>
</g>
<!-- Node17 -->
<g id="node17" class="node"><title>Node17</title>
<g id="a_node17"><a xlink:href="class_ogre_1_1_d3_d9_h_l_s_l_program.html" target="_top" xlink:title="Specialisation of HighLevelGpuProgram to provide support for D3D9 High&#45;Level Shader Language (HLSL)...">
<polygon fill="none" stroke="black" points="594,-50 594,-69 725,-69 725,-50 594,-50"/>
<text text-anchor="middle" x="659.5" y="-57" font-family="Helvetica,sans-Serif" font-size="10.00">Ogre::D3D9HLSLProgram</text>
</a>
</g>
</g>
<!-- Node14&#45;&gt;Node17 -->
<g id="edge16" class="edge"><title>Node14&#45;&gt;Node17</title>
<path fill="none" stroke="midnightblue" d="M528.284,-85.8905C554.951,-80.486 586.281,-74.1365 611.526,-69.0201"/>
<polygon fill="midnightblue" stroke="midnightblue" points="527.42,-82.4944 518.314,-87.911 528.81,-89.3549 527.42,-82.4944"/>
</g>
<!-- Node18 -->
<g id="node18" class="node"><title>Node18</title>
<g id="a_node18"><a xlink:href="class_ogre_1_1_unified_high_level_gpu_program.html" target="_top" xlink:title="Specialisation of HighLevelGpuProgram which just delegates its implementation to one other high level...">
<polygon fill="none" stroke="black" points="591.5,-0.5 591.5,-30.5 727.5,-30.5 727.5,-0.5 591.5,-0.5"/>
<text text-anchor="start" x="599.5" y="-18.5" font-family="Helvetica,sans-Serif" font-size="10.00">Ogre::UnifiedHighLevelGpu</text>
<text text-anchor="middle" x="659.5" y="-7.5" font-family="Helvetica,sans-Serif" font-size="10.00">Program</text>
</a>
</g>
</g>
<!-- Node14&#45;&gt;Node18 -->
<g id="edge17" class="edge"><title>Node14&#45;&gt;Node18</title>
<path fill="none" stroke="midnightblue" d="M495.301,-82.6595C516.363,-70.2325 547.943,-52.6317 577,-40.5 585.604,-36.9077 594.909,-33.5694 604.049,-30.5777"/>
<polygon fill="midnightblue" stroke="midnightblue" points="493.477,-79.672 486.683,-87.802 497.064,-85.6831 493.477,-79.672"/>
</g>
</g>
</svg>
