<?xml version="1.0" encoding="UTF-8" standalone="no"?>
<!DOCTYPE svg PUBLIC "-//W3C//DTD SVG 1.1//EN"
 "http://www.w3.org/Graphics/SVG/1.1/DTD/svg11.dtd">
<!-- Generated by graphviz version 2.38.0 (20140413.2041)
 -->
<!-- Title: Ogre::Resource Pages: 1 -->
<svg width="750pt" height="484pt"
 viewBox="0.00 0.00 750.00 484.00" xmlns="http://www.w3.org/2000/svg" xmlns:xlink="http://www.w3.org/1999/xlink">
<g id="graph0" class="graph" transform="scale(1 1) rotate(0) translate(4 480)">
<title>Ogre::Resource</title>
<!-- Node1 -->
<g id="node1" class="node"><title>Node1</title>
<polygon fill="#bfbfbf" stroke="black" points="143,-247.5 143,-266.5 229,-266.5 229,-247.5 143,-247.5"/>
<text text-anchor="middle" x="186" y="-254.5" font-family="Helvetica,sans-Serif" font-size="10.00">Ogre::Resource</text>
</g>
<!-- Node4 -->
<g id="node4" class="node"><title>Node4</title>
<g id="a_node4"><a xlink:href="class_ogre_1_1_bsp_level.html" target="_top" xlink:title="Holds all the data associated with a Binary Space Parition (BSP) based indoor level. ">
<polygon fill="none" stroke="black" points="272,-380.5 272,-399.5 356,-399.5 356,-380.5 272,-380.5"/>
<text text-anchor="middle" x="314" y="-387.5" font-family="Helvetica,sans-Serif" font-size="10.00">Ogre::BspLevel</text>
</a>
</g>
</g>
<!-- Node1&#45;&gt;Node4 -->
<g id="edge3" class="edge"><title>Node1&#45;&gt;Node4</title>
<path fill="none" stroke="midnightblue" d="M195.473,-275.818C207.58,-300.766 232.059,-344.697 265,-371 269.762,-374.803 275.382,-377.926 281.066,-380.462"/>
<polygon fill="midnightblue" stroke="midnightblue" points="198.602,-274.247 191.184,-266.682 192.266,-277.222 198.602,-274.247"/>
</g>
<!-- Node5 -->
<g id="node5" class="node"><title>Node5</title>
<g id="a_node5"><a xlink:href="class_ogre_1_1_compositor.html" target="_top" xlink:title="Class representing a Compositor object. ">
<polygon fill="none" stroke="black" points="267,-342.5 267,-361.5 361,-361.5 361,-342.5 267,-342.5"/>
<text text-anchor="middle" x="314" y="-349.5" font-family="Helvetica,sans-Serif" font-size="10.00">Ogre::Compositor</text>
</a>
</g>
</g>
<!-- Node1&#45;&gt;Node5 -->
<g id="edge4" class="edge"><title>Node1&#45;&gt;Node5</title>
<path fill="none" stroke="midnightblue" d="M201.408,-274.622C215.973,-291.494 239.863,-316.722 265,-333 270.642,-336.654 277.098,-339.797 283.407,-342.416"/>
<polygon fill="midnightblue" stroke="midnightblue" points="203.809,-272.039 194.685,-266.652 198.458,-276.552 203.809,-272.039"/>
</g>
<!-- Node6 -->
<g id="node6" class="node"><title>Node6</title>
<g id="a_node6"><a xlink:href="class_ogre_1_1_font.html" target="_top" xlink:title="Class representing a font in the system. ">
<polygon fill="none" stroke="black" points="282.5,-304.5 282.5,-323.5 345.5,-323.5 345.5,-304.5 282.5,-304.5"/>
<text text-anchor="middle" x="314" y="-311.5" font-family="Helvetica,sans-Serif" font-size="10.00">Ogre::Font</text>
</a>
</g>
</g>
<!-- Node1&#45;&gt;Node6 -->
<g id="edge5" class="edge"><title>Node1&#45;&gt;Node6</title>
<path fill="none" stroke="midnightblue" d="M214.836,-271.202C229.612,-278.577 248.152,-287.575 265,-295 272.381,-298.253 280.505,-301.567 287.937,-304.497"/>
<polygon fill="midnightblue" stroke="midnightblue" points="216.231,-267.986 205.725,-266.622 213.087,-274.241 216.231,-267.986"/>
</g>
<!-- Node7 -->
<g id="node7" class="node"><title>Node7</title>
<g id="a_node7"><a xlink:href="class_ogre_1_1_gpu_program.html" target="_top" xlink:title="Defines a program which runs on the GPU such as a vertex or fragment program. ">
<polygon fill="none" stroke="black" points="265,-266.5 265,-285.5 363,-285.5 363,-266.5 265,-266.5"/>
<text text-anchor="middle" x="314" y="-273.5" font-family="Helvetica,sans-Serif" font-size="10.00">Ogre::GpuProgram</text>
</a>
</g>
</g>
<!-- Node1&#45;&gt;Node7 -->
<g id="edge6" class="edge"><title>Node1&#45;&gt;Node7</title>
<path fill="none" stroke="midnightblue" d="M239.441,-264.908C247.889,-266.182 256.599,-267.495 264.938,-268.753"/>
<polygon fill="midnightblue" stroke="midnightblue" points="239.717,-261.41 229.307,-263.38 238.673,-268.332 239.717,-261.41"/>
</g>
<!-- Node22 -->
<g id="node22" class="node"><title>Node22</title>
<g id="a_node22"><a xlink:href="class_ogre_1_1_material.html" target="_top" xlink:title="Class encapsulates rendering properties of an object. ">
<polygon fill="none" stroke="black" points="275,-228.5 275,-247.5 353,-247.5 353,-228.5 275,-228.5"/>
<text text-anchor="middle" x="314" y="-235.5" font-family="Helvetica,sans-Serif" font-size="10.00">Ogre::Material</text>
</a>
</g>
</g>
<!-- Node1&#45;&gt;Node22 -->
<g id="edge21" class="edge"><title>Node1&#45;&gt;Node22</title>
<path fill="none" stroke="midnightblue" d="M239.535,-249.078C251.371,-247.293 263.715,-245.432 274.831,-243.756"/>
<polygon fill="midnightblue" stroke="midnightblue" points="238.673,-245.668 229.307,-250.62 239.717,-252.59 238.673,-245.668"/>
</g>
<!-- Node23 -->
<g id="node23" class="node"><title>Node23</title>
<g id="a_node23"><a xlink:href="class_ogre_1_1_mesh.html" target="_top" xlink:title="Resource holding data about 3D mesh. ">
<polygon fill="none" stroke="black" points="280,-190.5 280,-209.5 348,-209.5 348,-190.5 280,-190.5"/>
<text text-anchor="middle" x="314" y="-197.5" font-family="Helvetica,sans-Serif" font-size="10.00">Ogre::Mesh</text>
</a>
</g>
</g>
<!-- Node1&#45;&gt;Node23 -->
<g id="edge22" class="edge"><title>Node1&#45;&gt;Node23</title>
<path fill="none" stroke="midnightblue" d="M214.836,-242.798C229.612,-235.423 248.152,-226.425 265,-219 272.381,-215.747 280.505,-212.433 287.937,-209.503"/>
<polygon fill="midnightblue" stroke="midnightblue" points="213.087,-239.759 205.725,-247.378 216.231,-246.014 213.087,-239.759"/>
</g>
<!-- Node25 -->
<g id="node25" class="node"><title>Node25</title>
<g id="a_node25"><a xlink:href="class_ogre_1_1_skeleton.html" target="_top" xlink:title="A collection of Bone objects used to animate a skinned mesh. ">
<polygon fill="none" stroke="black" points="273,-152.5 273,-171.5 355,-171.5 355,-152.5 273,-152.5"/>
<text text-anchor="middle" x="314" y="-159.5" font-family="Helvetica,sans-Serif" font-size="10.00">Ogre::Skeleton</text>
</a>
</g>
</g>
<!-- Node1&#45;&gt;Node25 -->
<g id="edge24" class="edge"><title>Node1&#45;&gt;Node25</title>
<path fill="none" stroke="midnightblue" d="M201.408,-239.378C215.973,-222.506 239.863,-197.278 265,-181 270.642,-177.346 277.098,-174.203 283.407,-171.584"/>
<polygon fill="midnightblue" stroke="midnightblue" points="198.458,-237.448 194.685,-247.348 203.809,-241.961 198.458,-237.448"/>
</g>
<!-- Node27 -->
<g id="node27" class="node"><title>Node27</title>
<g id="a_node27"><a xlink:href="class_ogre_1_1_texture.html" target="_top" xlink:title="Abstract class representing a Texture resource. ">
<polygon fill="none" stroke="black" points="275.5,-76.5 275.5,-95.5 352.5,-95.5 352.5,-76.5 275.5,-76.5"/>
<text text-anchor="middle" x="314" y="-83.5" font-family="Helvetica,sans-Serif" font-size="10.00">Ogre::Texture</text>
</a>
</g>
</g>
<!-- Node1&#45;&gt;Node27 -->
<g id="edge26" class="edge"><title>Node1&#45;&gt;Node27</title>
<path fill="none" stroke="midnightblue" d="M198.749,-238.64C213.563,-215.777 240.111,-175.742 265,-143 277.996,-125.903 294.321,-107.012 304.192,-95.8421"/>
<polygon fill="midnightblue" stroke="midnightblue" points="195.634,-237.014 193.158,-247.315 201.517,-240.806 195.634,-237.014"/>
</g>
<!-- Node2 -->
<g id="node2" class="node"><title>Node2</title>
<g id="a_node2"><a xlink:href="class_ogre_1_1_string_interface.html" target="_top" xlink:title="Class defining the common interface which classes can use to present a reflection&#45;style, self&#45;defining parameter set to callers. ">
<polygon fill="none" stroke="black" points="0,-266.5 0,-285.5 107,-285.5 107,-266.5 0,-266.5"/>
<text text-anchor="middle" x="53.5" y="-273.5" font-family="Helvetica,sans-Serif" font-size="10.00">Ogre::StringInterface</text>
</a>
</g>
</g>
<!-- Node2&#45;&gt;Node1 -->
<g id="edge1" class="edge"><title>Node2&#45;&gt;Node1</title>
<path fill="none" stroke="midnightblue" d="M117.331,-266.852C126.011,-265.588 134.749,-264.316 142.929,-263.125"/>
<polygon fill="midnightblue" stroke="midnightblue" points="116.595,-263.422 107.203,-268.327 117.603,-270.349 116.595,-263.422"/>
</g>
<!-- Node3 -->
<g id="node3" class="node"><title>Node3</title>
<g id="a_node3"><a xlink:href="class_ogre_1_1_allocated_object.html" target="_top" xlink:title="Superclass for all objects that wish to use custom memory allocators when their new / delete operator...">
<polygon fill="none" stroke="black" points="13.5,-228.5 13.5,-247.5 93.5,-247.5 93.5,-228.5 13.5,-228.5"/>
<text text-anchor="middle" x="53.5" y="-235.5" font-family="Helvetica,sans-Serif" font-size="10.00">ResourceAlloc</text>
</a>
</g>
</g>
<!-- Node3&#45;&gt;Node1 -->
<g id="edge2" class="edge"><title>Node3&#45;&gt;Node1</title>
<path fill="none" stroke="midnightblue" d="M103.713,-245.165C116.542,-247.033 130.253,-249.029 142.69,-250.84"/>
<polygon fill="midnightblue" stroke="midnightblue" points="104.054,-241.678 93.6543,-243.701 103.046,-248.605 104.054,-241.678"/>
</g>
<!-- Node8 -->
<g id="node8" class="node"><title>Node8</title>
<g id="a_node8"><a xlink:href="class_ogre_1_1_d3_d9_gpu_program.html" target="_top" xlink:title="Direct3D implementation of a few things common to low&#45;level vertex &amp; fragment programs. ">
<polygon fill="none" stroke="black" points="408,-418.5 408,-437.5 532,-437.5 532,-418.5 408,-418.5"/>
<text text-anchor="middle" x="470" y="-425.5" font-family="Helvetica,sans-Serif" font-size="10.00">Ogre::D3D9GpuProgram</text>
</a>
</g>
</g>
<!-- Node7&#45;&gt;Node8 -->
<g id="edge7" class="edge"><title>Node7&#45;&gt;Node8</title>
<path fill="none" stroke="midnightblue" d="M357.679,-290.721C359.564,-292.033 361.352,-293.457 363,-295 390.279,-320.549 375.94,-341.586 399,-371 414.568,-390.857 438.241,-408.283 453.667,-418.481"/>
<polygon fill="midnightblue" stroke="midnightblue" points="359.337,-287.637 348.93,-285.652 355.828,-293.694 359.337,-287.637"/>
</g>
<!-- Node11 -->
<g id="node11" class="node"><title>Node11</title>
<g id="a_node11"><a xlink:href="class_ogre_1_1_g_l_e_s2_gpu_program.html" target="_top" xlink:title="Generalised low&#45;level GL program, can be applied to multiple types (eg ARB and NV) ...">
<polygon fill="none" stroke="black" points="405,-342.5 405,-361.5 535,-361.5 535,-342.5 405,-342.5"/>
<text text-anchor="middle" x="470" y="-349.5" font-family="Helvetica,sans-Serif" font-size="10.00">Ogre::GLES2GpuProgram</text>
</a>
</g>
</g>
<!-- Node7&#45;&gt;Node11 -->
<g id="edge10" class="edge"><title>Node7&#45;&gt;Node11</title>
<path fill="none" stroke="midnightblue" d="M350.102,-289.345C354.478,-291.169 358.865,-293.078 363,-295 367.429,-297.059 421.947,-326.524 451.015,-342.258"/>
<polygon fill="midnightblue" stroke="midnightblue" points="351.226,-286.024 340.644,-285.513 348.597,-292.512 351.226,-286.024"/>
</g>
<!-- Node13 -->
<g id="node13" class="node"><title>Node13</title>
<g id="a_node13"><a xlink:href="class_ogre_1_1_g_l_gpu_program.html" target="_top" xlink:title="Generalised low&#45;level GL program, can be applied to multiple types (eg ARB and NV) ...">
<polygon fill="none" stroke="black" points="414.5,-285.5 414.5,-304.5 525.5,-304.5 525.5,-285.5 414.5,-285.5"/>
<text text-anchor="middle" x="470" y="-292.5" font-family="Helvetica,sans-Serif" font-size="10.00">Ogre::GLGpuProgram</text>
</a>
</g>
</g>
<!-- Node7&#45;&gt;Node13 -->
<g id="edge12" class="edge"><title>Node7&#45;&gt;Node13</title>
<path fill="none" stroke="midnightblue" d="M373.411,-283.207C386.871,-284.867 401.138,-286.627 414.428,-288.267"/>
<polygon fill="midnightblue" stroke="midnightblue" points="373.657,-279.71 363.304,-281.96 372.8,-286.658 373.657,-279.71"/>
</g>
<!-- Node17 -->
<g id="node17" class="node"><title>Node17</title>
<g id="a_node17"><a xlink:href="class_ogre_1_1_high_level_gpu_program.html" target="_top" xlink:title="Abstract base class representing a high&#45;level program (a vertex or fragment program). ">
<polygon fill="none" stroke="black" points="399,-228.5 399,-247.5 541,-247.5 541,-228.5 399,-228.5"/>
<text text-anchor="middle" x="470" y="-235.5" font-family="Helvetica,sans-Serif" font-size="10.00">Ogre::HighLevelGpuProgram</text>
</a>
</g>
</g>
<!-- Node7&#45;&gt;Node17 -->
<g id="edge16" class="edge"><title>Node7&#45;&gt;Node17</title>
<path fill="none" stroke="midnightblue" d="M363.794,-263.96C385.308,-258.651 410.232,-252.501 430.419,-247.52"/>
<polygon fill="midnightblue" stroke="midnightblue" points="362.731,-260.617 353.861,-266.411 364.408,-267.413 362.731,-260.617"/>
</g>
<!-- Node9 -->
<g id="node9" class="node"><title>Node9</title>
<g id="a_node9"><a xlink:href="class_ogre_1_1_d3_d9_gpu_fragment_program.html" target="_top" xlink:title="Direct3D implementation of low&#45;level fragment programs. ">
<polygon fill="none" stroke="black" points="577,-456.5 577,-475.5 742,-475.5 742,-456.5 577,-456.5"/>
<text text-anchor="middle" x="659.5" y="-463.5" font-family="Helvetica,sans-Serif" font-size="10.00">Ogre::D3D9GpuFragmentProgram</text>
</a>
</g>
</g>
<!-- Node8&#45;&gt;Node9 -->
<g id="edge8" class="edge"><title>Node8&#45;&gt;Node9</title>
<path fill="none" stroke="midnightblue" d="M528.284,-439.61C554.951,-445.014 586.281,-451.364 611.526,-456.48"/>
<polygon fill="midnightblue" stroke="midnightblue" points="528.81,-436.145 518.314,-437.589 527.42,-443.006 528.81,-436.145"/>
</g>
<!-- Node10 -->
<g id="node10" class="node"><title>Node10</title>
<g id="a_node10"><a xlink:href="class_ogre_1_1_d3_d9_gpu_vertex_program.html" target="_top" xlink:title="Direct3D implementation of low&#45;level vertex programs. ">
<polygon fill="none" stroke="black" points="583.5,-418.5 583.5,-437.5 735.5,-437.5 735.5,-418.5 583.5,-418.5"/>
<text text-anchor="middle" x="659.5" y="-425.5" font-family="Helvetica,sans-Serif" font-size="10.00">Ogre::D3D9GpuVertexProgram</text>
</a>
</g>
</g>
<!-- Node8&#45;&gt;Node10 -->
<g id="edge9" class="edge"><title>Node8&#45;&gt;Node10</title>
<path fill="none" stroke="midnightblue" d="M542.266,-428C555.707,-428 569.804,-428 583.36,-428"/>
<polygon fill="midnightblue" stroke="midnightblue" points="542.135,-424.5 532.135,-428 542.135,-431.5 542.135,-424.5"/>
</g>
<!-- Node12 -->
<g id="node12" class="node"><title>Node12</title>
<g id="a_node12"><a xlink:href="class_ogre_1_1_g_l_s_l_e_s_gpu_program.html" target="_top" xlink:title="GLSL ES low level compiled shader object &#45; this class is used to get at the linked program object and...">
<polygon fill="none" stroke="black" points="591,-380.5 591,-399.5 728,-399.5 728,-380.5 591,-380.5"/>
<text text-anchor="middle" x="659.5" y="-387.5" font-family="Helvetica,sans-Serif" font-size="10.00">Ogre::GLSLESGpuProgram</text>
</a>
</g>
</g>
<!-- Node11&#45;&gt;Node12 -->
<g id="edge11" class="edge"><title>Node11&#45;&gt;Node12</title>
<path fill="none" stroke="midnightblue" d="M528.284,-363.61C554.951,-369.014 586.281,-375.364 611.526,-380.48"/>
<polygon fill="midnightblue" stroke="midnightblue" points="528.81,-360.145 518.314,-361.589 527.42,-367.006 528.81,-360.145"/>
</g>
<!-- Node14 -->
<g id="node14" class="node"><title>Node14</title>
<g id="a_node14"><a xlink:href="class_ogre_1_1_g_l_arb_gpu_program.html" target="_top" xlink:title="Specialisation of the GL low&#45;level program for ARB programs. ">
<polygon fill="none" stroke="black" points="596.5,-342.5 596.5,-361.5 722.5,-361.5 722.5,-342.5 596.5,-342.5"/>
<text text-anchor="middle" x="659.5" y="-349.5" font-family="Helvetica,sans-Serif" font-size="10.00">Ogre::GLArbGpuProgram</text>
</a>
</g>
</g>
<!-- Node13&#45;&gt;Node14 -->
<g id="edge13" class="edge"><title>Node13&#45;&gt;Node14</title>
<path fill="none" stroke="midnightblue" d="M504.745,-308.221C525.409,-316.035 552.505,-325.78 577,-333 588.706,-336.45 601.505,-339.682 613.419,-342.467"/>
<polygon fill="midnightblue" stroke="midnightblue" points="505.747,-304.857 495.156,-304.559 503.25,-311.396 505.747,-304.857"/>
</g>
<!-- Node15 -->
<g id="node15" class="node"><title>Node15</title>
<g id="a_node15"><a xlink:href="class_ogre_1_1_g_l_gpu_nvparse_program.html" target="_top" xlink:title="Ogre::GLGpuNvparseProgram">
<polygon fill="none" stroke="black" points="585.5,-304.5 585.5,-323.5 733.5,-323.5 733.5,-304.5 585.5,-304.5"/>
<text text-anchor="middle" x="659.5" y="-311.5" font-family="Helvetica,sans-Serif" font-size="10.00">Ogre::GLGpuNvparseProgram</text>
</a>
</g>
</g>
<!-- Node13&#45;&gt;Node15 -->
<g id="edge14" class="edge"><title>Node13&#45;&gt;Node15</title>
<path fill="none" stroke="midnightblue" d="M535.978,-301.584C551.864,-303.194 568.97,-304.928 585.215,-306.574"/>
<polygon fill="midnightblue" stroke="midnightblue" points="536.039,-298.073 525.737,-300.547 535.333,-305.037 536.039,-298.073"/>
</g>
<!-- Node16 -->
<g id="node16" class="node"><title>Node16</title>
<g id="a_node16"><a xlink:href="class_ogre_1_1_g_l_s_l_1_1_g_l_s_l_gpu_program.html" target="_top" xlink:title="GLSL low level compiled shader object &#45; this class is used to get at the linked program object and pr...">
<polygon fill="none" stroke="black" points="582.5,-266.5 582.5,-285.5 736.5,-285.5 736.5,-266.5 582.5,-266.5"/>
<text text-anchor="middle" x="659.5" y="-273.5" font-family="Helvetica,sans-Serif" font-size="10.00">Ogre::GLSL::GLSLGpuProgram</text>
</a>
</g>
</g>
<!-- Node13&#45;&gt;Node16 -->
<g id="edge15" class="edge"><title>Node13&#45;&gt;Node16</title>
<path fill="none" stroke="midnightblue" d="M535.926,-288.421C550.926,-286.901 567.016,-285.27 582.444,-283.707"/>
<polygon fill="midnightblue" stroke="midnightblue" points="535.333,-284.963 525.737,-289.453 536.039,-291.927 535.333,-284.963"/>
</g>
<!-- Node18 -->
<g id="node18" class="node"><title>Node18</title>
<g id="a_node18"><a xlink:href="class_ogre_1_1_cg_program.html" target="_top" xlink:title="Specialisation of HighLevelGpuProgram to provide support for nVidia&#39;s CG language. ">
<polygon fill="none" stroke="black" points="613,-228.5 613,-247.5 706,-247.5 706,-228.5 613,-228.5"/>
<text text-anchor="middle" x="659.5" y="-235.5" font-family="Helvetica,sans-Serif" font-size="10.00">Ogre::CgProgram</text>
</a>
</g>
</g>
<!-- Node17&#45;&gt;Node18 -->
<g id="edge17" class="edge"><title>Node17&#45;&gt;Node18</title>
<path fill="none" stroke="midnightblue" d="M551.334,-238C572.402,-238 594.393,-238 612.932,-238"/>
<polygon fill="midnightblue" stroke="midnightblue" points="551.085,-234.5 541.085,-238 551.085,-241.5 551.085,-234.5"/>
</g>
<!-- Node19 -->
<g id="node19" class="node"><title>Node19</title>
<g id="a_node19"><a xlink:href="class_ogre_1_1_d3_d11_h_l_s_l_program.html" target="_top" xlink:title="Specialization of HighLevelGpuProgram to provide support for D3D11 High&#45;Level Shader Language (HLSL)...">
<polygon fill="none" stroke="black" points="591.5,-190.5 591.5,-209.5 727.5,-209.5 727.5,-190.5 591.5,-190.5"/>
<text text-anchor="middle" x="659.5" y="-197.5" font-family="Helvetica,sans-Serif" font-size="10.00">Ogre::D3D11HLSLProgram</text>
</a>
</g>
</g>
<!-- Node17&#45;&gt;Node19 -->
<g id="edge18" class="edge"><title>Node17&#45;&gt;Node19</title>
<path fill="none" stroke="midnightblue" d="M528.284,-226.39C554.951,-220.986 586.281,-214.636 611.526,-209.52"/>
<polygon fill="midnightblue" stroke="midnightblue" points="527.42,-222.994 518.314,-228.411 528.81,-229.855 527.42,-222.994"/>
</g>
<!-- Node20 -->
<g id="node20" class="node"><title>Node20</title>
<g id="a_node20"><a xlink:href="class_ogre_1_1_d3_d9_h_l_s_l_program.html" target="_top" xlink:title="Specialisation of HighLevelGpuProgram to provide support for D3D9 High&#45;Level Shader Language (HLSL)...">
<polygon fill="none" stroke="black" points="594,-152.5 594,-171.5 725,-171.5 725,-152.5 594,-152.5"/>
<text text-anchor="middle" x="659.5" y="-159.5" font-family="Helvetica,sans-Serif" font-size="10.00">Ogre::D3D9HLSLProgram</text>
</a>
</g>
</g>
<!-- Node17&#45;&gt;Node20 -->
<g id="edge19" class="edge"><title>Node17&#45;&gt;Node20</title>
<path fill="none" stroke="midnightblue" d="M529.422,-224.834C533.449,-223.116 537.352,-221.18 541,-219 560.969,-207.064 556.819,-192.574 577,-181 583.806,-177.097 591.366,-173.995 599.061,-171.53"/>
<polygon fill="midnightblue" stroke="midnightblue" points="527.972,-221.641 519.862,-228.459 530.453,-228.186 527.972,-221.641"/>
</g>
<!-- Node21 -->
<g id="node21" class="node"><title>Node21</title>
<g id="a_node21"><a xlink:href="class_ogre_1_1_unified_high_level_gpu_program.html" target="_top" xlink:title="Specialisation of HighLevelGpuProgram which just delegates its implementation to one other high level...">
<polygon fill="none" stroke="black" points="591.5,-103 591.5,-133 727.5,-133 727.5,-103 591.5,-103"/>
<text text-anchor="start" x="599.5" y="-121" font-family="Helvetica,sans-Serif" font-size="10.00">Ogre::UnifiedHighLevelGpu</text>
<text text-anchor="middle" x="659.5" y="-110" font-family="Helvetica,sans-Serif" font-size="10.00">Program</text>
</a>
</g>
</g>
<!-- Node17&#45;&gt;Node21 -->
<g id="edge20" class="edge"><title>Node17&#45;&gt;Node21</title>
<path fill="none" stroke="midnightblue" d="M534.537,-223.653C536.805,-222.243 538.972,-220.697 541,-219 569.665,-195.015 548.73,-167.448 577,-143 581.478,-139.128 586.546,-135.855 591.911,-133.089"/>
<polygon fill="midnightblue" stroke="midnightblue" points="532.61,-220.71 525.359,-228.435 535.845,-226.918 532.61,-220.71"/>
</g>
<!-- Node24 -->
<g id="node24" class="node"><title>Node24</title>
<g id="a_node24"><a xlink:href="class_ogre_1_1_patch_mesh.html" target="_top" xlink:title="Patch specialisation of Mesh. ">
<polygon fill="none" stroke="black" points="423.5,-190.5 423.5,-209.5 516.5,-209.5 516.5,-190.5 423.5,-190.5"/>
<text text-anchor="middle" x="470" y="-197.5" font-family="Helvetica,sans-Serif" font-size="10.00">Ogre::PatchMesh</text>
</a>
</g>
</g>
<!-- Node23&#45;&gt;Node24 -->
<g id="edge23" class="edge"><title>Node23&#45;&gt;Node24</title>
<path fill="none" stroke="midnightblue" d="M358.273,-200C378.605,-200 402.847,-200 423.458,-200"/>
<polygon fill="midnightblue" stroke="midnightblue" points="358.037,-196.5 348.037,-200 358.037,-203.5 358.037,-196.5"/>
</g>
<!-- Node26 -->
<g id="node26" class="node"><title>Node26</title>
<g id="a_node26"><a xlink:href="class_ogre_1_1_skeleton_instance.html" target="_top" xlink:title="A SkeletonInstance is a single instance of a Skeleton used by a world object. ">
<polygon fill="none" stroke="black" points="410.5,-152.5 410.5,-171.5 529.5,-171.5 529.5,-152.5 410.5,-152.5"/>
<text text-anchor="middle" x="470" y="-159.5" font-family="Helvetica,sans-Serif" font-size="10.00">Ogre::SkeletonInstance</text>
</a>
</g>
</g>
<!-- Node25&#45;&gt;Node26 -->
<g id="edge25" class="edge"><title>Node25&#45;&gt;Node26</title>
<path fill="none" stroke="midnightblue" d="M365.249,-162C379.634,-162 395.441,-162 410.286,-162"/>
<polygon fill="midnightblue" stroke="midnightblue" points="365.06,-158.5 355.06,-162 365.06,-165.5 365.06,-158.5"/>
</g>
<!-- Node28 -->
<g id="node28" class="node"><title>Node28</title>
<g id="a_node28"><a xlink:href="class_ogre_1_1_d3_d11_texture.html" target="_top" xlink:title="Specialisation of Texture for D3D11. ">
<polygon fill="none" stroke="black" points="416.5,-114.5 416.5,-133.5 523.5,-133.5 523.5,-114.5 416.5,-114.5"/>
<text text-anchor="middle" x="470" y="-121.5" font-family="Helvetica,sans-Serif" font-size="10.00">Ogre::D3D11Texture</text>
</a>
</g>
</g>
<!-- Node27&#45;&gt;Node28 -->
<g id="edge27" class="edge"><title>Node27&#45;&gt;Node28</title>
<path fill="none" stroke="midnightblue" d="M362.4,-97.6961C384.211,-103.078 409.76,-109.382 430.378,-114.47"/>
<polygon fill="midnightblue" stroke="midnightblue" points="363.22,-94.2935 352.673,-95.2958 361.543,-101.09 363.22,-94.2935"/>
</g>
<!-- Node29 -->
<g id="node29" class="node"><title>Node29</title>
<g id="a_node29"><a xlink:href="class_ogre_1_1_d3_d9_texture.html" target="_top" xlink:title="Ogre::D3D9Texture">
<polygon fill="none" stroke="black" points="419,-76.5 419,-95.5 521,-95.5 521,-76.5 419,-76.5"/>
<text text-anchor="middle" x="470" y="-83.5" font-family="Helvetica,sans-Serif" font-size="10.00">Ogre::D3D9Texture</text>
</a>
</g>
</g>
<!-- Node27&#45;&gt;Node29 -->
<g id="edge28" class="edge"><title>Node27&#45;&gt;Node29</title>
<path fill="none" stroke="midnightblue" d="M362.843,-86C380.656,-86 400.912,-86 418.921,-86"/>
<polygon fill="midnightblue" stroke="midnightblue" points="362.673,-82.5001 352.673,-86 362.673,-89.5001 362.673,-82.5001"/>
</g>
<!-- Node30 -->
<g id="node30" class="node"><title>Node30</title>
<g id="a_node30"><a xlink:href="class_ogre_1_1_g_l3_plus_texture.html" target="_top" xlink:title="Ogre::GL3PlusTexture">
<polygon fill="none" stroke="black" points="413,-38.5 413,-57.5 527,-57.5 527,-38.5 413,-38.5"/>
<text text-anchor="middle" x="470" y="-45.5" font-family="Helvetica,sans-Serif" font-size="10.00">Ogre::GL3PlusTexture</text>
</a>
</g>
</g>
<!-- Node27&#45;&gt;Node30 -->
<g id="edge29" class="edge"><title>Node27&#45;&gt;Node30</title>
<path fill="none" stroke="midnightblue" d="M362.4,-74.3039C384.211,-68.9219 409.76,-62.6176 430.378,-57.5302"/>
<polygon fill="midnightblue" stroke="midnightblue" points="361.543,-70.9103 352.673,-76.7042 363.22,-77.7065 361.543,-70.9103"/>
</g>
<!-- Node31 -->
<g id="node31" class="node"><title>Node31</title>
<g id="a_node31"><a xlink:href="class_ogre_1_1_g_l_texture.html" target="_top" xlink:title="Ogre::GLTexture">
<polygon fill="none" stroke="black" points="425.5,-0.5 425.5,-19.5 514.5,-19.5 514.5,-0.5 425.5,-0.5"/>
<text text-anchor="middle" x="470" y="-7.5" font-family="Helvetica,sans-Serif" font-size="10.00">Ogre::GLTexture</text>
</a>
</g>
</g>
<!-- Node27&#45;&gt;Node31 -->
<g id="edge30" class="edge"><title>Node27&#45;&gt;Node31</title>
<path fill="none" stroke="midnightblue" d="M334.695,-69.8503C351.039,-57.1573 375.353,-39.8628 399,-29 407.239,-25.2153 416.38,-22.0565 425.265,-19.471"/>
<polygon fill="midnightblue" stroke="midnightblue" points="332.149,-67.4021 326.489,-76.3585 336.499,-72.8865 332.149,-67.4021"/>
</g>
</g>
</svg>
